<svg width="150" height="40" viewBox="0 0 150 40" fill="none" xmlns="http://www.w3.org/2000/svg">
  <path d="M14 8L32 8L32 12L22 12L22 32L18 32L18 12L14 12L14 8Z" fill="#E31C5F"/>
  <path d="M37 8L41 8L52 28L52 8L56 8L56 32L52 32L41 12L41 32L37 32L37 8Z" fill="#E31C5F"/>
  <path d="M61 8L65 8L76 28L76 8L80 8L80 32L76 32L65 12L65 32L61 32L61 8Z" fill="#E31C5F"/>
  <path d="M90 24V12H94V24H90Z" fill="#333333"/>
  <path d="M97 12H101L104 22L107 12H111V24H107V16L104 24H101L98 16V24H94V12H97Z" fill="#333333"/>
  <path d="M113 12H125V16H117V17H123V21H117V22H125V26H113V12Z" fill="#333333"/>
  <path d="M127 12H131V22H139V26H127V12Z" fill="#333333"/>
</svg> 